<svg height="496pt" viewBox="0 0 496 495" width="496pt" xmlns="http://www.w3.org/2000/svg"><path d="m488 344.144531h-8v-80.207031c9.65625-7.3125 16-18.785156 16-31.792969 0-17.054687-3.511719-33.601562-10.441406-49.175781l-22.253906-50.074219c-1.28125-2.886719-4.144532-4.75-7.304688-4.75s-6.023438 1.863281-7.3125 4.75l-22.253906 50.074219c-6.921875 15.574219-10.433594 32.121094-10.433594 49.175781 0 13.015625 6.34375 24.488281 16 31.792969v80.207031h-32v-32c0-.960937-.167969-1.914062-.503906-2.808593l-24-64c-1.175782-3.121094-4.160156-5.191407-7.496094-5.191407s-6.320312 2.070313-7.496094 5.191407l-24 64c-.335937.894531-.503906 1.847656-.503906 2.808593v32h-8c-2.289062 0-4.464844.976563-5.976562 2.679688-1.519532 1.703125-2.230469 3.984375-1.96875 6.246093l9.304687 79.074219h-313.359375v-224h368v32h16v-184c0-1.242187-.289062-2.472656-.839844-3.578125l-24-48c-2.710937-5.421875-11.601562-5.421875-14.3125 0l-16.847656 33.691406-16.839844-33.691406c-2.710937-5.421875-11.601562-5.421875-14.3125 0l-16.847656 33.691406-16.839844-33.691406c-2.710937-5.421875-11.601562-5.421875-14.3125 0l-16.847656 33.691406-16.839844-33.691406c-2.710937-5.421875-11.601562-5.421875-14.3125 0l-16.847656 33.691406-16.839844-33.691406c-2.710937-5.421875-11.601562-5.421875-14.3125 0l-16.847656 33.691406-16.839844-33.691406c-2.710937-5.421875-11.601562-5.421875-14.3125 0l-16.847656 33.691406-16.839844-33.691406c-2.710937-5.421875-11.601562-5.421875-14.3125 0l-16.847656 33.691406-16.839844-33.691406c-2.710937-5.421875-11.601562-5.421875-14.3125 0l-24 48 .074219.042969c-.546875 1.070313-.921875 2.246094-.921875 3.535156v432c0 4.414063 3.585938 8 8 8h464c4.054688 0 7.472656-3.03125 7.945312-7.066406l16-136c.261719-2.269531-.449218-4.542969-1.96875-6.246094-1.511718-1.710937-3.6875-2.6875-5.976562-2.6875zm-46.945312-154.679687 14.945312-33.625 14.945312 33.625c6.007813 13.519531 9.054688 27.878906 9.054688 42.679687 0 13.230469-10.769531 24-24 24s-24-10.769531-24-24c0-14.800781 3.046875-29.160156 9.054688-42.679687zm6.945312 81.871094c2.585938.527343 5.265625.808593 8 .808593s5.414062-.28125 8-.808593v72.808593h-16zm-80-.40625 15.457031 41.214843h-30.914062zm-16 57.214843h32v16h-32zm-336-136v-16h368v16zm0-128h32v96h-32zm80 0v96h-32v-96zm48 0v96h-32v-96zm48 0v96h-32v-96zm48 0v96h-32v-96zm48 0v96h-32v-96zm48 0v96h-32v-96zm48 0v96h-32v-96zm-16-38.113281 11.054688 22.113281h-22.109376zm-48 0 11.054688 22.113281h-22.109376zm-48 0 11.054688 22.113281h-22.109376zm-48 0 11.054688 22.113281h-22.109376zm-48 0 11.054688 22.113281h-22.109376zm-48 0 11.054688 22.113281h-22.109376zm-48 0 11.054688 22.113281h-22.109376zm-48 0 11.054688 22.113281h-22.109376zm-16 422.113281h315.238281l3.769531 32h-319.007812zm448.886719 32h-113.773438l-14.121093-120h142.007812zm0 0"/><path d="m136 312.144531c0 35.289063 28.710938 64 64 64s64-28.710937 64-64c0-35.289062-28.710938-64-64-64s-64 28.710938-64 64zm112 0c0 26.472657-21.527344 48-48 48s-48-21.527343-48-48c0-26.472656 21.527344-48 48-48s48 21.527344 48 48zm0 0"/></svg>